PathFileType	4	(X/Y/Z)	Patient4_TMGait_0pt3_02_left_09.trc.trc
DataRate	CameraRate	NumFrames	NumMarkers	Units	OrigDataRate	OrigDataStartFrame	OrigNumFrames
51.094890510949	51.094890510949	7	33	mm	51.094890510949	18	       141
Frame#	Time	Sacral			L.Shoulder			Chest			R.Shoulder			Neck			R.ASIS			L.ASIS			R.Thigh.Superior			R.Thigh.Lateral			R.Thigh.Inferior			R.Patella			L.Thigh.Superior			L.Thigh.Lateral			L.Thigh.Inferior			L.Patella			L.Shank.Superior			L.Shank.Lateral			L.Shank.Inferior			R.Shank.Superior			R.Shank.Lateral			R.Shank.Inferior			R.Heel			R.Midfoot.Superior			R.Midfoot.Lateral			R.Toe			L.Heel			L.Midfoot.Lateral			L.Midfoot.Superior			L.Toe			L.Elbow			L.Wrist			R.Elbow			R.Wrist			
		X1	Y1	Z1	X2	Y2	Z2	X3	Y3	Z3	X4	Y4	Z4	X5	Y5	Z5	X6	Y6	Z6	X7	Y7	Z7	X8	Y8	Z8	X9	Y9	Z9	X10	Y10	Z10	X11	Y11	Z11	X12	Y12	Z12	X13	Y13	Z13	X14	Y14	Z14	X15	Y15	Z15	X16	Y16	Z16	X17	Y17	Z17	X18	Y18	Z18	X19	Y19	Z19	X20	Y20	Z20	X21	Y21	Z21	X22	Y22	Z22	X23	Y23	Z23	X24	Y24	Z24	X25	Y25	Z25	X26	Y26	Z26	X27	Y27	Z27	X28	Y28	Z28	X29	Y29	Z29	X30	Y30	Z30	X31	Y31	Z31	X32	Y32	Z32	X33	Y33	Z33	

18	17.792714285714	704.113528630007	1006.511914510041	571.677482924118	885.738376532545	1419.464085560890	362.591080228681	999.728196788047	1351.104250134347	515.917358230626	939.110388306081	1436.438657652254	692.975103815117	888.915346722967	1487.189232004770	513.981438484731	937.606738923085	930.167692387892	670.242655927126	906.491299303227	955.905913674134	397.387485161715	957.912530010341	724.257555024115	628.518227288277	868.442777604804	616.217737974644	681.688540881422	937.643655068313	563.285503243084	596.194032557918	928.691929492217	470.710608762916	596.090546742060	980.550492835521	770.277681013522	431.554246303650	934.719984991770	646.702569465364	348.519878180401	1027.614361466736	581.468166670033	419.591243203012	1052.821545576361	515.990068440837	414.197545809155	1032.359945210403	446.398952192379	398.503088302329	964.756048911773	322.474247329411	335.489269176212	1042.673475237172	216.126857712469	391.838109078571	881.166523925928	387.747703062802	598.230104090097	793.053271305556	295.113439625797	655.624947348774	813.830191104576	198.762142807597	585.963150382468	653.470854656878	48.720334682711	547.787040750125	824.941971675581	96.130102855944	590.397171657258	733.285230905254	39.054465055181	624.983608626482	941.450692997879	38.703491189077	624.726981276748	943.850461854068	47.017122765860	419.233152513731	1024.490364374868	41.892524303671	346.281705611816	1102.675404580965	110.611854440401	372.498024929369	1233.101794818765	65.704062457063	358.132966888993	748.854274675419	1089.197411857373	276.215399403911	713.545140921643	833.219065313469	310.010393980909	1054.585053404155	1124.382493141298	831.977223917684	1304.381188450261	1139.570361709826	782.193171636232	
19	17.812285714286	705.198667681864	1007.327101520014	571.287358468329	884.393209417679	1420.219784401512	360.911048754562	1000.029926835516	1351.685563996211	513.017657624196	941.199852761630	1437.393981375871	690.395796732070	888.978236245014	1487.675302956498	512.042734276741	938.825179151327	930.336621010453	668.247220533904	906.273305783723	956.229543329624	395.606196030198	955.676283710869	723.627730988381	626.984923754973	864.851227289629	616.839229139051	681.260093305704	932.462506012505	562.794735343386	595.557020119571	922.160341596619	470.899543418154	595.676735325875	978.027396198326	768.126632081688	428.206095920746	928.926623304639	645.279891401714	345.577527709482	1021.555748693611	578.834626925309	415.852301914283	1046.431137675050	515.402473279089	411.393731758350	1028.613480504902	446.590502483946	396.251843761171	966.685662102703	319.403156106732	333.090949203283	1048.697283971609	216.483237369223	390.739195844372	874.983243551407	388.098075622258	598.097143281737	786.957863384534	295.488874006420	655.705035214014	807.875609136564	199.096741894574	586.069384211110	647.509782973575	48.885119163465	547.967218682774	819.135580855161	96.140217238579	590.425994410227	727.374331678872	39.108703786977	625.119339840340	935.557169244141	38.695959454846	624.743732479750	956.258283532367	44.264141786830	417.950531192395	1038.048347901582	40.589578206586	346.151177002266	1113.745841944293	111.849707477427	372.776460101692	1245.754628863246	70.541789794659	360.884946130555	742.119913512719	1092.848722211965	275.602602660605	705.757071243335	837.114470615136	312.373146802327	1068.174429243694	1131.716465192685	829.160022738369	1314.815438457698	1164.001368055650	773.378500622438	
20	17.831857142857	706.536406656961	1007.744730216180	570.535043540843	883.212775246023	1420.613188882319	358.899528155876	1000.381639249386	1352.030045802336	509.903704263316	943.086595925843	1438.049384762076	687.535856835588	889.036167871404	1487.862526400628	509.771524553774	940.315236356092	930.289798683624	666.099206967509	906.409300457196	956.186548372504	393.657668463772	953.683222708578	722.769054377843	625.371158876306	861.366101073856	617.308938283082	680.704566358475	927.333234326022	562.125930380295	594.825901971240	915.568965419544	470.971001766208	595.112538213142	976.226596762838	765.916673445998	424.777804758652	923.831665162146	643.576769017771	342.906478738917	1016.400444225374	576.243653978584	412.341167545050	1040.729100659123	514.403885272934	408.839130363098	1024.961218784102	446.190092755262	394.215059364613	967.303382738669	316.742242527989	331.199475191614	1052.285971944128	216.605741419294	389.868550357321	868.772676969309	388.325421587854	597.848730578714	780.816733150436	295.758053356553	655.694216179789	801.881356192623	199.314816673975	586.105814197582	641.508501393745	48.872745532524	548.113486190305	813.282312660694	96.137845144587	590.438071224706	721.428505766961	39.077289449835	625.239922644027	929.645550291045	38.729267279333	624.747744135252	964.707897915645	42.309240628913	417.034980921889	1047.247873108155	39.952831301249	345.976440457933	1121.000936826501	112.958056707705	373.037651314253	1254.120771508763	74.415670780927	362.732199725469	736.668635569885	1095.667892102662	274.831555308215	699.804763574625	840.036458031059	314.293583565443	1080.874852318415	1138.926669358659	826.049351615644	1323.398414744626	1186.516998811384	764.822185779887	
21	17.851428571429	708.115762901255	1007.741849390427	569.433737800961	882.204347623227	1420.587961706982	356.534868765265	1000.794789518360	1352.108014060163	506.563596116966	944.778834149302	1438.378120909860	684.392942014316	889.103702816613	1487.720074784408	507.149785220941	942.066948949577	929.997274714239	663.826168806594	906.910169028999	955.764066426979	391.565817898718	951.968864125643	721.654470970472	623.699711020010	858.029863103952	617.590043620088	680.008639546054	922.326312931565	561.259835178473	593.989997535425	909.007776196965	470.891345475457	594.381022315247	975.239313380394	763.739806389256	421.391242445020	919.659884018523	641.667893961218	340.569498206265	1012.360798706473	573.821361216038	409.151906569973	1035.941627390305	513.072960857232	406.584975285098	1021.679482019288	445.207301393226	392.421516487663	966.834839059817	314.370569249734	329.809146971455	1053.723329304328	216.279578691924	389.233466951859	862.596642936283	388.401831310026	597.462733267123	774.678907113890	295.907927500727	655.570736337233	795.866397038614	199.399961794302	586.057060932991	635.473215202026	48.683951373411	548.219894597427	807.376132917762	96.119992930049	590.424691367367	715.450459403818	38.962868722959	625.336298196733	923.713186612212	38.799752663921	624.736783678492	969.390449998414	40.877611731016	416.527838032866	1052.252858159762	39.656266217147	345.742159729795	1124.718271677629	113.588813687133	373.249669229310	1258.505540937455	76.854715432358	363.554170989139	732.511026198671	1097.517676720522	273.883993799491	695.585066328605	841.876114329907	315.671082860715	1092.577692171219	1145.815893683675	822.643452149662	1330.357977347587	1206.915377479228	756.530299655720	
22	17.871000000000	709.911386043815	1007.344972363698	568.008591478296	881.380290622807	1420.127800773338	353.810368252955	1001.290567851369	1351.916008045741	502.990784631219	946.315284180860	1438.388944483267	680.970873008149	889.210558970781	1487.252039982041	504.171389274438	944.058747103610	929.456036988955	661.449495506496	907.764945929314	954.995304186623	389.351941101816	950.555175995924	720.285070698943	621.981853801460	854.886600110192	617.667734926743	679.156498573030	917.514964724102	560.200799669515	593.031730605074	902.580600296694	470.644501629909	593.467558094781	975.101709856762	761.698055506320	418.166779788367	916.594071981548	639.664433816507	338.591916687144	1009.581836293333	571.685198266995	406.348242595694	1032.227054731317	511.515625918879	404.656434214717	1019.011995022941	443.716920527732	390.875796723958	965.598314325441	312.208507699872	328.860975836368	1053.421360456113	215.404092882926	388.823981711978	856.526018114409	388.317416402469	596.919328724212	768.603308739203	295.945472228741	655.316268510496	789.858032736735	199.354931248121	585.911416685209	629.413867897753	48.350332030925	548.283749524719	801.417655934376	96.084460793562	590.372208418560	709.447591110754	38.784398859354	625.402375387010	917.760521483935	38.898360223268	624.709484447435	970.725084069448	39.789121008977	416.427728675139	1053.503820667943	39.453067189451	345.453114398162	1125.392064693415	113.520593808778	373.399942424719	1259.440328903616	77.573747280873	363.378914485871	729.637786768557	1098.328160216389	272.738760467329	692.997962302068	842.589349414679	316.409327146164	1103.217543330382	1152.215299020578	818.947015342028	1335.933016625970	1225.097924493473	748.500010860807	
23	17.890571428571	711.883475053261	1006.628952831988	566.294430927733	880.757616897909	1419.259023192482	350.736688471915	1001.897422457364	1351.477412869603	499.187365927610	947.761279095750	1438.126691819179	677.281107853113	889.399482829367	1486.498582739579	500.844361012722	946.255550066777	928.693048751887	658.983555210788	908.940146494265	953.958155924921	387.033408043761	949.450353642922	718.694812848963	620.215354789400	851.985382671117	617.551438410597	678.131495535983	912.978840222792	558.979048368189	591.928735614137	896.407517203551	470.233413861823	592.362464033187	975.794700936857	759.900513453567	415.207635690819	914.758087476702	637.704849692122	336.961688025556	1008.134422466212	569.937733786842	403.956481701373	1029.672322587362	509.859175066700	403.050799248111	1017.147348298209	441.852000813780	389.560357871036	963.958636818643	310.230219388281	328.254726312842	1051.860758573793	213.996838362784	388.613976367199	850.644854385456	388.081544083608	596.204105607413	762.661010614193	295.899992765396	654.918793154946	783.895531066727	199.203521906214	585.663223279441	623.345255306569	47.938148351917	548.306734791705	795.419567355356	96.034154902470	590.268748208677	703.432669265769	38.578579937807	625.436095850952	911.792767489654	39.010173908802	624.666597668659	969.296197271342	38.945751237234	416.684096510919	1051.656327483628	39.191343629688	345.129083193489	1123.653506211901	112.688280769804	373.496144227306	1257.610230603446	76.538900453616	362.378613666232	728.020244669277	1098.103512729464	271.371596901118	691.953551170218	842.199312515779	316.424428171127	1112.774053683899	1157.995222845000	814.971420277373	1340.363538855456	1241.055931804524	740.723182081760	
24	17.910142857143	713.981480289952	1005.708501579001	564.331937150642	880.356457298171	1418.049413367583	347.342812353633	1002.647054566255	1350.840838641112	495.166925254994	949.199794444690	1437.667928015996	673.344222215778	889.721251933902	1485.532727636309	497.192963426269	948.608100346594	927.764849440449	656.436404039901	910.383559184270	952.766940517363	384.623051698965	948.649695485309	716.950732000541	618.386317930233	849.380719431780	617.274446611881	676.919139580105	908.805200053408	557.649334733872	590.658684032098	890.622579645686	469.679415035227	591.064704720932	977.249173562697	758.455820301520	412.585647001390	914.202156734298	635.938228460334	335.634678864595	1008.011199343014	568.658592932223	401.965046965690	1028.293772247767	508.238669934878	401.740724792004	1016.197740741897	439.784008503643	388.442736153087	962.268622451863	308.460673144920	327.866336780082	1049.516884148993	212.172522783245	388.565200865498	845.050936350287	387.721964272374	595.311673028871	756.934295129219	295.822415772094	654.375432159201	778.031229872874	198.989606225643	585.315138579222	617.287565412589	47.546934555752	548.295543691973	789.410768508950	95.981692997816	590.112815251443	697.423748829134	38.398735026398	625.439814622099	905.820640081180	39.115006893541	624.611806153756	965.765340674516	38.303670859690	417.202432519361	1047.480815558008	38.808442079973	344.795747216076	1120.169582436493	111.176257716893	373.560027885847	1253.755301740484	73.974456556829	360.829120669150	727.608924722728	1096.923773620951	269.754992181715	692.376432230761	840.796799440093	315.652281224292	1121.270274977223	1163.073475525484	810.734538218122	1343.884171380640	1254.853117351146	733.188191396957	
